<?xml version="1.0" encoding="UTF-8"?><svg id="Layer_2" xmlns="http://www.w3.org/2000/svg" viewBox="0 0 50 64.11"><defs><style>.cls-1{fill:#ff5054;}.cls-2{fill:#fefefe;}</style></defs><g id="Layer_1-2"><g><path class="cls-1" d="M24.98,0c14.48,0,25.85,11.88,24.97,26.26-.29,4.77-2.64,8.89-4.99,12.92-4.93,8.44-11.06,16-17.58,23.26-1.9,2.11-3.76,2.24-5.5,.2-7.37-8.61-14.19-17.59-19.33-27.78C-5.95,18.02,8.13-.49,24.98,0Zm.19,10c-7.13-.03-12.64,5.3-12.67,12.26-.04,7.15,5.27,12.69,12.2,12.74,7.29,.05,12.78-5.27,12.8-12.39,.02-7.11-5.33-12.58-12.32-12.61Z"/><path class="cls-2" d="M25.17,10.01c7,.03,12.34,5.5,12.32,12.61-.02,7.12-5.51,12.44-12.8,12.39-6.93-.05-12.24-5.59-12.2-12.74,.04-6.96,5.55-12.29,12.67-12.26Zm-.27,19.5c4.38,.03,7.58-3.12,7.6-7.47,.01-4.26-3.09-7.46-7.28-7.53-4.4-.07-7.67,3.03-7.72,7.34-.05,4.39,3.08,7.63,7.41,7.66Z"/><path class="cls-1" d="M24.9,29.51c-4.33-.03-7.46-3.27-7.41-7.66,.05-4.32,3.32-7.42,7.72-7.34,4.2,.07,7.29,3.27,7.28,7.53-.01,4.35-3.22,7.5-7.6,7.47Z"/></g></g></svg>