<?xml version="1.0" encoding="UTF-8"?><svg id="Layer_2" xmlns="http://www.w3.org/2000/svg" viewBox="0 0 100 100"><defs><style>.cls-1{fill:#fffaf9;}.cls-2{fill:#8e3200;}.cls-3{fill:#fefefe;}</style></defs><g id="Layer_1-2"><g><path class="cls-3" d="M.05,.05c32.64,0,65.27,.02,97.91-.05,1.71,0,2.05,.34,2.05,2.05-.07,31.97-.07,63.94,0,95.91,0,1.71-.34,2.05-2.05,2.05-31.97-.07-63.94-.07-95.91,0C.34,100,0,99.66,0,97.95,.07,65.32,.05,32.68,.05,.05ZM49.99,16.53c-16.83-.5-30.91,17.99-22.41,34.82,5.14,10.19,11.95,19.15,19.31,27.75,1.74,2.04,3.61,1.91,5.5-.2,6.51-7.25,12.63-14.81,17.56-23.24,2.35-4.02,4.69-8.14,4.98-12.9,.87-14.37-10.48-26.24-24.95-26.24Z"/><path class="cls-2" d="M49.99,16.53c14.46,0,25.82,11.86,24.95,26.24-.29,4.76-2.64,8.89-4.98,12.9-4.93,8.44-11.05,15.99-17.56,23.24-1.89,2.11-3.76,2.23-5.5,.2-7.36-8.6-14.17-17.57-19.31-27.75-8.5-16.84,5.57-35.32,22.41-34.82Zm.19,9.99c-7.12-.03-12.63,5.3-12.66,12.25-.04,7.15,5.27,12.68,12.19,12.73,7.28,.05,12.77-5.26,12.79-12.38,.02-7.11-5.32-12.58-12.32-12.6Z"/><path class="cls-1" d="M50.17,26.52c6.99,.03,12.33,5.49,12.32,12.6-.02,7.12-5.51,12.43-12.79,12.38-6.93-.05-12.23-5.58-12.19-12.73,.04-6.95,5.54-12.28,12.66-12.25Zm-.27,19.48c4.37,.03,7.57-3.12,7.58-7.46,.01-4.25-3.08-7.45-7.27-7.52-4.39-.08-7.66,3.03-7.71,7.33-.05,4.38,3.08,7.61,7.4,7.65Z"/><path class="cls-2" d="M49.91,46c-4.32-.03-7.45-3.27-7.4-7.65,.05-4.31,3.31-7.41,7.71-7.33,4.19,.07,7.28,3.27,7.27,7.52-.01,4.34-3.22,7.49-7.58,7.46Z"/></g></g></svg>